<svg width="20" height="20" viewBox="0 0 20 20" fill="none" xmlns="http://www.w3.org/2000/svg">
    <path d="M10.0001 6.87576C8.2798 6.87576 6.87589 8.27967 6.87589 9.99998C6.87589 11.7203 8.2798 13.1242 10.0001 13.1242C11.7204 13.1242 13.1243 11.7203 13.1243 9.99998C13.1243 8.27967 11.7204 6.87576 10.0001 6.87576ZM19.3704 9.99998C19.3704 8.70623 19.3821 7.4242 19.3095 6.1328C19.2368 4.6328 18.8946 3.30155 17.7978 2.20467C16.6985 1.10545 15.3696 0.765608 13.8696 0.692952C12.5759 0.620295 11.2939 0.632014 10.0025 0.632014C8.7087 0.632014 7.42667 0.620295 6.13527 0.692952C4.63527 0.765608 3.30402 1.1078 2.20714 2.20467C1.10792 3.30389 0.76808 4.6328 0.695424 6.1328C0.622767 7.42655 0.634486 8.70858 0.634486 9.99998C0.634486 11.2914 0.622767 12.5758 0.695424 13.8672C0.76808 15.3672 1.11027 16.6984 2.20714 17.7953C3.30636 18.8945 4.63527 19.2344 6.13527 19.307C7.42902 19.3797 8.71105 19.368 10.0025 19.368C11.2962 19.368 12.5782 19.3797 13.8696 19.307C15.3696 19.2344 16.7009 18.8922 17.7978 17.7953C18.897 16.6961 19.2368 15.3672 19.3095 13.8672C19.3845 12.5758 19.3704 11.2937 19.3704 9.99998V9.99998ZM10.0001 14.807C7.33995 14.807 5.19308 12.6601 5.19308 9.99998C5.19308 7.33983 7.33995 5.19295 10.0001 5.19295C12.6603 5.19295 14.8071 7.33983 14.8071 9.99998C14.8071 12.6601 12.6603 14.807 10.0001 14.807ZM15.004 6.11873C14.3829 6.11873 13.8814 5.61717 13.8814 4.99608C13.8814 4.37498 14.3829 3.87342 15.004 3.87342C15.6251 3.87342 16.1267 4.37498 16.1267 4.99608C16.1269 5.14356 16.0979 5.28963 16.0416 5.42592C15.9852 5.56221 15.9026 5.68604 15.7983 5.79033C15.694 5.89461 15.5701 5.9773 15.4339 6.03365C15.2976 6.09001 15.1515 6.11892 15.004 6.11873V6.11873Z" fill="white"/>
</svg>