<svg width="20" height="20" viewBox="0 0 20 20" fill="none" xmlns="http://www.w3.org/2000/svg">
<path fill-rule="evenodd" clip-rule="evenodd" d="M2.38806 0C1.06917 0 0 1.06917 0 2.38806V17.6119C0 18.9308 1.06917 20 2.38806 20H17.6119C18.9308 20 20 18.9308 20 17.6119V2.38806C20 1.06917 18.9308 0 17.6119 0H2.38806ZM4.25577 15.3028H7.0591V7.52506H4.25577V15.3028ZM4.1791 4.76617C4.1791 5.52839 4.75133 6.0995 5.60799 6.0995C6.56022 6.0995 7.13133 5.52839 7.13133 4.76617C7.13133 4.00395 6.5591 3.43284 5.70244 3.43284C4.75022 3.43284 4.1791 4.00395 4.1791 4.76617ZM14.3458 15.3028H17.0591V11.0517C17.0591 8.61061 15.9735 7.52506 14.6169 7.52506C13.2602 7.52506 12.5369 7.97728 12.1758 8.61061V7.52506H9.37244V15.3028H12.1758V11.0517C12.1758 9.78617 13.0802 9.60506 13.3513 9.60506C13.6224 9.60506 14.3458 9.87617 14.3458 11.0517V15.3028Z" fill="white"/>
</svg>
