<svg width="20" height="20" viewBox="0 0 20 20" fill="none" xmlns="http://www.w3.org/2000/svg">
<path d="M10 0C4.47833 0 0 4.47833 0 10C0 15.5217 4.47833 20 10 20C15.5217 20 20 15.5217 20 10C20 4.47833 15.5242 0 10 0ZM4.93333 10.3358L4.97583 10.2683L7.57833 6.19833C7.58705 6.18495 7.5992 6.17416 7.61351 6.16708C7.62782 6.16 7.64378 6.1569 7.6597 6.15809C7.67562 6.15928 7.69093 6.16473 7.70403 6.17386C7.71713 6.18299 7.72754 6.19547 7.73417 6.21C8.1675 7.18417 8.54417 8.39583 8.3675 9.15C8.29417 9.46 8.08833 9.88 7.85583 10.2683C7.82601 10.3251 7.79347 10.3805 7.75833 10.4342C7.74992 10.4461 7.73866 10.4558 7.72557 10.4624C7.71247 10.4689 7.69796 10.4721 7.68333 10.4717H5.01083C4.99488 10.4719 4.97916 10.4678 4.96534 10.4599C4.95152 10.4519 4.94012 10.4403 4.93234 10.4264C4.92456 10.4125 4.9207 10.3967 4.92117 10.3808C4.92164 10.3648 4.92642 10.3493 4.935 10.3358H4.93333ZM16.5283 11.7358C16.5285 11.7536 16.5235 11.7711 16.5139 11.7861C16.5043 11.801 16.4904 11.8128 16.4742 11.82C16.2717 11.9058 15.5825 12.2242 15.2958 12.6217C14.5642 13.64 14.0058 15.0967 12.7558 15.0967H7.54417C7.10414 15.096 6.66855 15.0086 6.2623 14.8396C5.85605 14.6705 5.48709 14.423 5.17653 14.1113C4.86596 13.7996 4.61986 13.4297 4.45231 13.0228C4.28475 12.6159 4.19901 12.18 4.2 11.74V11.68C4.2 11.6317 4.24 11.5917 4.29 11.5917H7.19417C7.2525 11.5917 7.29417 11.6442 7.29 11.7017C7.26833 11.89 7.30417 12.0842 7.39417 12.26C7.56583 12.61 7.92417 12.8283 8.31 12.8283H9.74833V11.7058H8.325C8.30832 11.7057 8.29201 11.7009 8.27781 11.6922C8.26362 11.6834 8.25209 11.6709 8.24446 11.6561C8.23683 11.6413 8.23339 11.6246 8.23451 11.608C8.23564 11.5914 8.24128 11.5753 8.25083 11.5617L8.30333 11.4867C8.43667 11.2942 8.62917 10.9983 8.82083 10.66C8.95083 10.4317 9.0775 10.1883 9.17917 9.94333C9.19917 9.9 9.215 9.85417 9.23333 9.81C9.26083 9.73167 9.28917 9.65833 9.30917 9.58583C9.32879 9.52436 9.34686 9.46239 9.36333 9.4C9.41083 9.19167 9.43083 8.97167 9.43083 8.74417C9.43083 8.65417 9.4275 8.56 9.41917 8.47167C9.415 8.37417 9.4025 8.27583 9.39083 8.17833C9.38151 8.0911 9.36817 8.00434 9.35083 7.91833C9.32841 7.78737 9.30117 7.65729 9.26917 7.52833L9.2575 7.47833C9.2325 7.38833 9.21083 7.30333 9.1825 7.21417C9.10315 6.94034 9.01195 6.67009 8.90917 6.40417C8.87335 6.30414 8.83388 6.20546 8.79083 6.10833C8.73083 5.96 8.66917 5.82583 8.61333 5.7C8.58555 5.64609 8.55943 5.59134 8.535 5.53583C8.5079 5.47595 8.47928 5.41676 8.44917 5.35833C8.42917 5.31417 8.405 5.27167 8.38917 5.23167L8.21333 4.90833C8.18917 4.86417 8.22917 4.81 8.2775 4.82417L9.3775 5.12167H9.38583L9.53 5.16333L9.69 5.20833L9.74833 5.22417V4.57167C9.74833 4.25583 10 4 10.3142 4C10.3884 3.9998 10.4618 4.01461 10.5301 4.04354C10.5984 4.07247 10.6602 4.11492 10.7117 4.16833C10.8181 4.27565 10.8779 4.42054 10.8783 4.57167V5.54167L10.9958 5.57417C11.0042 5.57833 11.0142 5.5825 11.0217 5.58833C11.05 5.60833 11.0917 5.64 11.1442 5.68C11.1858 5.71167 11.23 5.75167 11.2817 5.79417C11.4462 5.92823 11.6058 6.06833 11.76 6.21417C11.9383 6.38 12.1383 6.57417 12.33 6.79C12.3842 6.85167 12.4358 6.91167 12.49 6.97833C12.5417 7.04417 12.6 7.10833 12.6483 7.17167C12.7142 7.25833 12.7817 7.34833 12.8442 7.44167C12.8717 7.48583 12.9058 7.53167 12.9317 7.57583C13.0117 7.69417 13.08 7.81583 13.1458 7.93833C13.1742 7.99417 13.2017 8.05583 13.2258 8.11583C13.3 8.28 13.3583 8.44583 13.3942 8.61417C13.406 8.64989 13.4141 8.68676 13.4183 8.72417V8.7325C13.43 8.78 13.4342 8.8325 13.4383 8.88583C13.4618 9.13214 13.4317 9.38061 13.35 9.61417C13.3242 9.68417 13.3 9.75583 13.2683 9.82583C13.2058 9.9675 13.1342 10.1117 13.0483 10.2442C13.02 10.2942 12.9858 10.3458 12.9542 10.3958C12.9183 10.4483 12.88 10.4983 12.8483 10.5458C12.8025 10.6089 12.7544 10.6704 12.7042 10.73C12.66 10.79 12.6158 10.85 12.5658 10.9042C12.4983 10.9858 12.4325 11.0625 12.3617 11.1358C12.3217 11.1842 12.2783 11.2342 12.2317 11.2775C12.1883 11.3275 12.1417 11.3717 12.1017 11.4117C12.0317 11.4817 11.9767 11.5342 11.9283 11.58L11.8142 11.6817C11.7983 11.6976 11.7767 11.7066 11.7542 11.7067H10.8783V12.8283H11.98C12.2258 12.8283 12.46 12.7417 12.65 12.58C12.7142 12.5242 12.9958 12.28 13.33 11.9117C13.3409 11.8991 13.3555 11.8904 13.3717 11.8867L16.4133 11.0058C16.4267 11.002 16.4408 11.0013 16.4544 11.0037C16.4681 11.0062 16.481 11.0118 16.4922 11.0202C16.5033 11.0285 16.5124 11.0393 16.5186 11.0517C16.5249 11.0641 16.5282 11.0778 16.5283 11.0917V11.7358Z" fill="black"/>
</svg>
