<svg width="24" height="22" viewBox="0 0 24 22" fill="none" xmlns="http://www.w3.org/2000/svg">
    <path d="M20.6389 8.53905C19.9358 8.53905 19.3171 8.82967 18.8624 9.28436C17.1889 8.12655 14.9342 7.38124 12.4358 7.30155L13.7342 1.45155L17.8686 2.37968C17.8686 3.39217 18.6936 4.21718 19.7061 4.21718C20.7374 4.21718 21.5671 3.36874 21.5671 2.35624C21.5671 1.34374 20.7421 0.4953 19.7061 0.4953C18.9842 0.4953 18.3608 0.931238 18.0514 1.52655L13.4858 0.51405C13.2561 0.453113 13.0311 0.617175 12.9702 0.846863L11.5452 7.29686C9.06549 7.39999 6.83424 8.1453 5.15612 9.30311C4.70143 8.82967 4.05924 8.53905 3.35612 8.53905C0.749867 8.53905 -0.103258 12.0359 2.28268 13.2312C2.19831 13.6016 2.1608 13.9953 2.1608 14.389C2.1608 18.3172 6.5858 21.5 12.0186 21.5C17.4749 21.5 21.8999 18.3172 21.8999 14.389C21.8999 13.9953 21.8577 13.5828 21.7546 13.2125C24.0936 12.0125 23.2311 8.53905 20.6389 8.53905ZM6.06549 13.4797C6.06549 12.4484 6.89049 11.6187 7.92643 11.6187C8.93893 11.6187 9.76393 12.4437 9.76393 13.4797C9.76393 14.4922 8.93893 15.3172 7.92643 15.3172C6.89518 15.3219 6.06549 14.4922 6.06549 13.4797ZM16.1108 17.8625C14.4046 19.5687 9.59049 19.5687 7.88424 17.8625C7.69674 17.6984 7.69674 17.4078 7.88424 17.2203C8.04831 17.0562 8.33893 17.0562 8.50299 17.2203C9.80612 18.5562 14.128 18.5797 15.4874 17.2203C15.6514 17.0562 15.9421 17.0562 16.1061 17.2203C16.2983 17.4078 16.2983 17.6984 16.1108 17.8625ZM16.0733 15.3219C15.0608 15.3219 14.2358 14.4969 14.2358 13.4844C14.2358 12.4531 15.0608 11.6234 16.0733 11.6234C17.1046 11.6234 17.9342 12.4484 17.9342 13.4844C17.9296 14.4922 17.1046 15.3219 16.0733 15.3219Z" fill="white"/>
</svg>