<svg width="24" height="20" viewBox="0 0 24 20" fill="none" xmlns="http://www.w3.org/2000/svg">
    <path d="M23.6425 2.93699C22.8075 3.30699 21.9105 3.55699 20.9675 3.66999C21.9405 3.08778 22.6685 2.17145 23.0155 1.09199C22.1014 1.63497 21.1009 2.01718 20.0575 2.22199C19.3559 1.47285 18.4266 0.976312 17.4138 0.809459C16.4011 0.642607 15.3616 0.814777 14.4568 1.29924C13.5519 1.7837 12.8323 2.55335 12.4097 3.48869C11.9871 4.42403 11.8851 5.47274 12.1195 6.47199C10.2672 6.37898 8.45515 5.89753 6.80095 5.05889C5.14674 4.22025 3.68736 3.04315 2.51752 1.60399C2.11752 2.29399 1.88752 3.09399 1.88752 3.94599C1.88708 4.71298 2.07596 5.46823 2.4374 6.14472C2.79885 6.82121 3.32168 7.39802 3.95952 7.82399C3.2198 7.80045 2.4964 7.60057 1.84952 7.24099V7.30098C1.84945 8.37673 2.22156 9.41936 2.90271 10.252C3.58386 11.0846 4.53209 11.6559 5.58652 11.869C4.90031 12.0547 4.18086 12.0821 3.48252 11.949C3.78002 12.8746 4.35952 13.684 5.13989 14.2639C5.92026 14.8438 6.86244 15.1652 7.83452 15.183C6.18436 16.4784 4.14641 17.1811 2.04852 17.178C1.6769 17.1781 1.3056 17.1564 0.936523 17.113C3.066 18.4822 5.54486 19.2088 8.07652 19.206C16.6465 19.206 21.3315 12.108 21.3315 5.95199C21.3315 5.75199 21.3265 5.54998 21.3175 5.34999C22.2288 4.69096 23.0154 3.87488 23.6405 2.93999L23.6425 2.93699Z" fill="white"/>
</svg>