<svg width="116" height="18" viewBox="0 0 116 18" fill="none" xmlns="http://www.w3.org/2000/svg">
<g clip-path="url(#clip0_383_37)">
<path d="M21 5.21625V14.125C21 14.9538 20.6708 15.7487 20.0847 16.3347C19.4987 16.9208 18.7038 17.25 17.875 17.25H4.125C3.2962 17.25 2.50134 16.9208 1.91529 16.3347C1.32924 15.7487 1 14.9538 1 14.125V5.21625L10.6825 10.9137C10.7787 10.9705 10.8883 11.0004 11 11.0004C11.1117 11.0004 11.2213 10.9705 11.3175 10.9137L21 5.21625ZM17.875 1C18.6439 0.999879 19.3859 1.28326 19.959 1.79592C20.5321 2.30859 20.8961 3.01455 20.9813 3.77875L11 9.65L1.01875 3.77875C1.10395 3.01455 1.4679 2.30859 2.04099 1.79592C2.61408 1.28326 3.35607 0.999879 4.125 1H17.875Z" fill="#fff"/>
<path d="M26.7866 16.4375V15.5293L27.6421 15.3535V8.74414L26.7105 8.56836V7.66016H28.9663L29.0601 8.41016C29.2593 8.13281 29.4976 7.91992 29.7749 7.77148C30.0562 7.61914 30.3882 7.54297 30.771 7.54297C31.2866 7.54297 31.728 7.68359 32.0952 7.96484C32.4624 8.24609 32.7417 8.63867 32.9331 9.14258C33.1284 9.64648 33.2261 10.2363 33.2261 10.9121V11.0352C33.2261 11.6523 33.1284 12.1934 32.9331 12.6582C32.7378 13.1191 32.4566 13.4785 32.0894 13.7363C31.7222 13.9941 31.2827 14.123 30.771 14.123C30.0601 14.123 29.5073 13.873 29.1128 13.373V15.3535L30.0152 15.5293V16.4375H26.7866ZM30.3257 12.9863C30.8101 12.9863 31.1675 12.8086 31.398 12.4531C31.6323 12.0938 31.7495 11.6211 31.7495 11.0352V10.9121C31.7495 10.2598 31.6304 9.73047 31.3921 9.32422C31.1577 8.91406 30.7984 8.70898 30.314 8.70898C30.0405 8.70898 29.8023 8.77148 29.5991 8.89648C29.396 9.01758 29.2339 9.18945 29.1128 9.41211V12.3184C29.3667 12.7637 29.771 12.9863 30.3257 12.9863ZM34.4767 14V13.0977L35.3498 12.9219V8.74414L34.424 8.56836V7.66016H36.7091L36.7853 8.45703L36.797 8.58594C37.1369 7.89062 37.6291 7.54297 38.2736 7.54297C38.5158 7.54297 38.7326 7.57422 38.924 7.63672L38.7541 9.00195L37.9279 8.95508C37.6584 8.93945 37.4357 8.99219 37.2599 9.11328C37.0841 9.23438 36.9396 9.40234 36.8263 9.61719V12.9219L37.7052 13.0977V14H34.4767ZM44.5867 16.6543C43.5711 16.6543 42.7078 16.4336 41.9969 15.9922C41.2859 15.5547 40.7508 14.9277 40.3914 14.1113C40.0359 13.2949 39.8816 12.3242 39.9285 11.1992C39.9754 10.0898 40.2137 9.12109 40.6434 8.29297C41.073 7.46094 41.6609 6.81445 42.407 6.35352C43.1531 5.88867 44.0223 5.65625 45.0145 5.65625C46.0105 5.65625 46.8543 5.87305 47.5457 6.30664C48.241 6.74023 48.7625 7.35547 49.1102 8.15234C49.4578 8.94922 49.6102 9.89453 49.5672 10.9883C49.5437 11.5625 49.4285 12.0879 49.2215 12.5645C49.0145 13.0371 48.7156 13.416 48.325 13.7012C47.9344 13.9824 47.45 14.123 46.8719 14.123C46.5437 14.123 46.2684 14.0391 46.0457 13.8711C45.823 13.7031 45.6668 13.4688 45.577 13.168C45.2137 13.7969 44.6785 14.1113 43.9715 14.1113C43.4441 14.1113 43.0379 13.877 42.7527 13.4082C42.4715 12.9395 42.368 12.3145 42.4422 11.5332C42.5047 10.877 42.6453 10.3027 42.8641 9.81055C43.0828 9.31836 43.3719 8.93555 43.7312 8.66211C44.0906 8.38867 44.5125 8.25195 44.9969 8.25195C45.3836 8.25195 45.7078 8.30273 45.9695 8.4043C46.2312 8.50195 46.5242 8.6582 46.8484 8.87305L46.8602 8.89648L46.5613 12.2832C46.5301 12.6777 46.5652 12.9492 46.6668 13.0977C46.7684 13.2461 46.9148 13.3203 47.1062 13.3203C47.5437 13.3203 47.8992 13.1035 48.1727 12.6699C48.4461 12.2324 48.6004 11.6719 48.6355 10.9883C48.698 9.57422 48.4227 8.4707 47.8094 7.67773C47.2 6.88086 46.2605 6.48242 44.991 6.48242C44.1941 6.48242 43.5008 6.67969 42.9109 7.07422C42.325 7.46484 41.8641 8.01367 41.5281 8.7207C41.1922 9.42773 41.0047 10.2539 40.9656 11.1992C40.9187 12.1484 41.032 12.9668 41.3055 13.6543C41.5828 14.3418 42.0008 14.8711 42.5594 15.2422C43.1219 15.6133 43.8055 15.7988 44.6102 15.7988C44.9461 15.7988 45.2898 15.7578 45.6414 15.6758C45.9969 15.5977 46.2996 15.4961 46.5496 15.3711L46.7723 16.1328C46.5066 16.2969 46.1707 16.4238 45.7645 16.5137C45.3621 16.6074 44.9695 16.6543 44.5867 16.6543ZM44.3641 13.1504C44.5789 13.1504 44.7801 13.1016 44.9676 13.0039C45.159 12.9023 45.3309 12.7207 45.4832 12.459C45.4832 12.3926 45.4891 12.3027 45.5008 12.1895L45.7586 9.28906C45.6648 9.25 45.5672 9.21875 45.4656 9.19531C45.3641 9.17188 45.2605 9.16016 45.1551 9.16016C44.698 9.16016 44.3504 9.35938 44.1121 9.75781C43.8738 10.1523 43.7176 10.7539 43.6434 11.5625C43.5574 12.6211 43.7977 13.1504 44.3641 13.1504ZM50.9877 14V13.0977L52.3764 12.9219V6.88672L50.9643 6.89844V6.03125L53.8471 5.46875V12.9219L55.2358 13.0977V14H50.9877ZM58.4727 14.123C57.8282 14.123 57.3263 13.957 56.9669 13.625C56.6075 13.293 56.4278 12.8359 56.4278 12.2539C56.4278 11.6562 56.67 11.1719 57.1544 10.8008C57.6427 10.4297 58.3419 10.2441 59.252 10.2441H60.2188V9.71094C60.2188 9.375 60.1173 9.10742 59.9141 8.9082C59.7149 8.70898 59.4239 8.60938 59.0411 8.60938C58.8223 8.60938 58.629 8.63672 58.461 8.69141C58.293 8.74219 58.1427 8.81641 58.0098 8.91406L57.8809 9.76953H56.7911L56.7794 8.20508C57.088 7.99805 57.4337 7.83594 57.8165 7.71875C58.2032 7.60156 58.6309 7.54297 59.0997 7.54297C59.9044 7.54297 60.5372 7.73242 60.9981 8.11133C61.463 8.49023 61.6954 9.0293 61.6954 9.72852V12.5234C61.6954 12.6094 61.6954 12.6934 61.6954 12.7754C61.6993 12.8535 61.7052 12.9336 61.713 13.0156L62.3575 13.0977V14H60.4298C60.3907 13.8633 60.3536 13.7305 60.3184 13.6016C60.2872 13.4727 60.2638 13.3438 60.2481 13.2148C60.0372 13.4805 59.7813 13.6992 59.4805 13.8711C59.1798 14.0391 58.8438 14.123 58.4727 14.123ZM58.8067 12.9805C59.1075 12.9805 59.3848 12.9121 59.6388 12.7754C59.8966 12.6348 60.0899 12.459 60.2188 12.248V11.1875H59.2345C58.793 11.1875 58.4591 11.291 58.2325 11.498C58.0098 11.7012 57.8985 11.9395 57.8985 12.2129C57.8985 12.7246 58.2013 12.9805 58.8067 12.9805ZM65.7116 14.1113C65.1726 14.1113 64.7527 13.9609 64.4519 13.6602C64.1511 13.3555 64.0007 12.8711 64.0007 12.207V8.71484H63.0749V7.66016H64.0007V6.11914H65.4714V7.66016H66.7253V8.71484H65.4714V12.207C65.4714 12.4766 65.5261 12.6719 65.6355 12.793C65.7487 12.9141 65.9011 12.9746 66.0925 12.9746C66.2019 12.9746 66.323 12.9668 66.4558 12.9512C66.5925 12.9316 66.7038 12.9121 66.7898 12.8926L66.9362 13.9297C66.7683 13.9805 66.573 14.0234 66.3503 14.0586C66.1277 14.0938 65.9148 14.1113 65.7116 14.1113ZM67.8705 14V13.0977L68.7494 12.9219V5.94336L67.8177 5.76758V4.85938H70.2201V8.48047C70.431 8.18359 70.6869 7.95312 70.9877 7.78906C71.2923 7.625 71.6361 7.54297 72.0189 7.54297C72.6712 7.54297 73.1849 7.75195 73.5599 8.16992C73.9349 8.58398 74.1224 9.22461 74.1224 10.0918V12.9219L74.9955 13.0977V14H71.8138V13.0977L72.6459 12.9219V10.0801C72.6459 9.5957 72.5482 9.24609 72.3529 9.03125C72.1576 8.81641 71.8705 8.70898 71.4916 8.70898C71.222 8.70898 70.9779 8.76953 70.7591 8.89062C70.5404 9.00781 70.3607 9.17383 70.2201 9.38867V12.9219L71.0521 13.0977V14H67.8705ZM76.4102 14V12.6348H77.8809V14H76.4102ZM82.0143 14.123C81.5612 14.123 81.1373 14.0801 80.7428 13.9941C80.3522 13.9043 79.9596 13.7734 79.5651 13.6016L79.5475 11.9258H80.608L80.8307 12.8398C81.0026 12.918 81.1764 12.9766 81.3522 13.0156C81.528 13.0547 81.7252 13.0742 81.944 13.0742C82.3659 13.0742 82.6627 13 82.8346 12.8516C83.0104 12.7031 83.0983 12.5195 83.0983 12.3008C83.0983 12.0938 83.0065 11.9141 82.8229 11.7617C82.6432 11.6094 82.2975 11.4785 81.7858 11.3691C81.0241 11.2051 80.4655 10.9668 80.11 10.6543C79.7545 10.3379 79.5768 9.92773 79.5768 9.42383C79.5768 9.08008 79.6686 8.76562 79.8522 8.48047C80.0397 8.19531 80.3131 7.96875 80.6725 7.80078C81.0358 7.63281 81.4811 7.54883 82.0084 7.54883C82.4889 7.54883 82.9147 7.59961 83.2858 7.70117C83.6608 7.79883 83.9791 7.92969 84.2409 8.09375L84.2819 9.70508H83.2272L83.0455 8.86719C82.7916 8.6875 82.4674 8.59766 82.0729 8.59766C81.7487 8.59766 81.4928 8.66992 81.3053 8.81445C81.1178 8.95508 81.0241 9.13281 81.0241 9.34766C81.0241 9.53516 81.0983 9.69727 81.2467 9.83398C81.3952 9.9707 81.7233 10.0957 82.2311 10.209C83.0553 10.4004 83.6452 10.6504 84.0006 10.959C84.3561 11.2676 84.5338 11.6758 84.5338 12.1836C84.5338 12.75 84.3268 13.2148 83.9127 13.5781C83.4987 13.9414 82.8659 14.123 82.0143 14.123ZM88.1399 14.1113C87.6009 14.1113 87.1809 13.9609 86.8802 13.6602C86.5794 13.3555 86.429 12.8711 86.429 12.207V8.71484H85.5032V7.66016H86.429V6.11914H87.8997V7.66016H89.1536V8.71484H87.8997V12.207C87.8997 12.4766 87.9544 12.6719 88.0638 12.793C88.177 12.9141 88.3294 12.9746 88.5208 12.9746C88.6302 12.9746 88.7513 12.9668 88.8841 12.9512C89.0208 12.9316 89.1321 12.9121 89.218 12.8926L89.3645 13.9297C89.1966 13.9805 89.0013 14.0234 88.7786 14.0586C88.5559 14.0938 88.343 14.1113 88.1399 14.1113ZM93.1464 14.123C92.4667 14.123 91.9355 13.9082 91.5527 13.4785C91.1738 13.0449 90.9843 12.373 90.9843 11.4629V8.74414L90.2695 8.56836V7.66016H92.4609V11.4746C92.4609 12.0215 92.5468 12.4062 92.7187 12.6289C92.8945 12.8477 93.164 12.957 93.5273 12.957C94.1601 12.957 94.6113 12.7129 94.8808 12.2246V8.74414L94.0839 8.56836V7.66016H96.3573V12.9219L97.1073 13.0977V14H95.0507L94.9511 13.1387C94.7519 13.4551 94.498 13.6992 94.1894 13.8711C93.8847 14.0391 93.537 14.123 93.1464 14.123ZM100.631 14.123C100.12 14.123 99.6822 13.9941 99.3189 13.7363C98.9556 13.4785 98.6763 13.1191 98.481 12.6582C98.2896 12.1934 98.1939 11.6523 98.1939 11.0352V10.9121C98.1939 10.2402 98.2896 9.65234 98.481 9.14844C98.6763 8.64062 98.9556 8.24609 99.3189 7.96484C99.6822 7.68359 100.118 7.54297 100.626 7.54297C100.989 7.54297 101.305 7.61328 101.575 7.75391C101.848 7.89062 102.083 8.08789 102.278 8.3457V5.94336L101.346 5.76758V4.85938H103.754V12.9219L104.633 13.0977V14H102.477L102.36 13.2324C101.95 13.8262 101.374 14.123 100.631 14.123ZM101.047 12.957C101.329 12.957 101.571 12.8945 101.774 12.7695C101.977 12.6445 102.145 12.4668 102.278 12.2363V9.44141C102.149 9.21094 101.981 9.03125 101.774 8.90234C101.571 8.77344 101.333 8.70898 101.059 8.70898C100.579 8.70898 100.227 8.91211 100.004 9.31836C99.7818 9.72461 99.6705 10.2559 99.6705 10.9121V11.0352C99.6705 11.6211 99.7779 12.0879 99.9927 12.4355C100.211 12.7832 100.563 12.957 101.047 12.957ZM105.597 14V13.0977L106.476 12.9219V8.74414L105.544 8.56836V7.66016H107.952V12.9219L108.825 13.0977V14H105.597ZM106.417 6.22461V4.85938H107.952V6.22461H106.417ZM112.812 14.123C112.203 14.123 111.68 13.9863 111.242 13.7129C110.805 13.4355 110.469 13.0547 110.234 12.5703C110 12.0859 109.883 11.5273 109.883 10.8945V10.7715C109.883 10.1426 110 9.58594 110.234 9.10156C110.469 8.61719 110.805 8.23633 111.242 7.95898C111.68 7.68164 112.199 7.54297 112.801 7.54297C113.41 7.54297 113.933 7.68164 114.371 7.95898C114.808 8.23242 115.144 8.61328 115.379 9.10156C115.613 9.58594 115.73 10.1426 115.73 10.7715V10.8945C115.73 11.5312 115.613 12.0918 115.379 12.5762C115.144 13.0605 114.808 13.4395 114.371 13.7129C113.937 13.9863 113.418 14.123 112.812 14.123ZM112.812 12.9863C113.301 12.9863 113.664 12.793 113.902 12.4062C114.14 12.0156 114.26 11.5117 114.26 10.8945V10.7715C114.26 10.166 114.139 9.66797 113.896 9.27734C113.658 8.88281 113.293 8.68555 112.801 8.68555C112.312 8.68555 111.949 8.88281 111.711 9.27734C111.476 9.66797 111.359 10.166 111.359 10.7715V10.8945C111.359 11.5117 111.476 12.0156 111.711 12.4062C111.949 12.793 112.316 12.9863 112.812 12.9863Z" fill="#fff"/>
</g>
<defs>
<clipPath id="clip0_383_37">
<rect width="116" height="18" fill="white"/>
</clipPath>
</defs>
</svg>
