<?xml version="1.0" encoding="utf-8"?>
<!-- Generator: Adobe Illustrator 24.3.0, SVG Export Plug-In . SVG Version: 6.00 Build 0)  -->
<svg version="1.1" id="Слой_1" xmlns="http://www.w3.org/2000/svg" xmlns:xlink="http://www.w3.org/1999/xlink" x="0px" y="0px"
	 viewBox="0 0 470.7 512.4" style="enable-background:new 0 0 470.7 512.4;" xml:space="preserve">
<style type="text/css">
	.st0{fill:#FFFFFF;}
</style>
<path class="st0" d="M465.9,0c-88.6,13.9-173,53.8-238.9,114.8c-1.2,2.4-10.2,2.5-12.5,2.8c-11.7,1.3-25.8,1.4-37.1,4.9
	c-38.2,7.5-73.7,26.5-103.3,51.3c-33,30.7-63.2,68.8-74.1,113.3c37.9,4.8,78.6,6.5,116.6,15c-4.3,7-14.2,13.1-20.2,18.7
	c-13.8,11.2-28.9,23-42.9,34c-7.4,6.1-17.1,13-24.1,19.6c1.3,2.3,5.5,5,7.5,6.7c45,31.7,88.1,66.6,130.6,101.5
	c8,6.5,17.4,14.4,25.2,21.1c3.7-2.6,5.8-10.6,7.9-14.4c11.9-28.1,21.7-57.9,33.1-86.1c8,22.5,14.5,46.6,22,69.3
	c4.7,12.7,7.8,28.4,14.9,39.9c20.4-15.8,41.9-32,59.4-51.1c18.7-18.4,34.1-41.3,46.7-64.2c22.5-44.2,27.9-89.6,19.9-138.3
	C436,211.7,453.3,150,463.9,90.5C466.5,72.6,476.6,11.6,465.9,0z M77.8,276.4c-16.1-1.1-32.6-3.3-48.6-4.9c-3.4,0.5-0.5-3.4-0.4-4.8
	C53.4,209,104.2,161,165.5,145.6c11.4-3.8,25.8-4.5,37.6-6.5c-17.9,14.8-38.2,28.5-56.2,43.2C114.4,205.1,95.1,241.8,77.8,276.4z
	 M193,452.5l-0.5,1.3l-0.6,1.7l-0.7,1.9l-0.7,2l-0.7,2l-0.7,1.9l-0.6,1.7l-0.2,0.4l-0.4,0.9l-0.4,0.9l-0.2,0.3l-2.5-2l-6.7-5.6
	l-7.7-6.4l-2.4-2l-7.6-6.4l-4.9-4.2l-7.6-6.4l-6.6-5.6l-7.6-6.4l-7.5-6.3l-7.6-6.4l-7.5-6.3l-7.6-6.4l-6.6-5.6l-7.6-6.4l-5-4.2
	l-7.7-6.4l-2.4-2l-6.7-5.6l-2.5-2l1.2-1l3.5-2.7l6.4-5.1l6.1,4.6l6.2,5.1l7.7,6.3l1.6,1.3l7.7,6.3l4,3.3l7.7,6.3l5.6,4.6l7.7,6.3
	l6.4,5.2l7.7,6.3l6.4,5.2l7.7,6.3l5.6,4.6l7.7,6.3l4,3.3l7.7,6.3l1.6,1.3l6.2,5.1l2,1.6L193,452.5z M207.4,422.1l-0.5,1.1l-0.8,1.6
	l-0.9,2l-1.1,2.3l-1.1,2.4l-1.1,2.4l-1.1,2.3l-0.9,2l-0.5,1.1l-0.2,0.5l-0.5,1.1l-0.2,0.4l-2.2-1.8l-5.9-4.9l-7.7-6.4l-1.2-1
	l-7.7-6.4l-3.4-2.9l-7.7-6.4l-4.9-4.1l-7.7-6.4l-5.7-4.7l-7.7-6.4l-5.7-4.7l-7.7-6.4l-4.9-4.1l-7.7-6.4l-3.4-2.9l-7.7-6.4l-1.2-1
	l-5.9-4.9l-4.7-3.9l-1.3-1.1l10.6-8.8l0.1-0.1l6.5-4.7l9.2,8.3l7.4,6.6l0.7,0.6l7.7,6.4l2.9,2.4l7.7,6.4l4.3,3.6l7.7,6.4l5.1,4.2
	l7.7,6.4l5,4.2l7.7,6.4l4.3,3.6l7.7,6.4l2.9,2.4l7.7,6.4l0.7,0.6l5.6,4.6l2,1.7H207.4z M224.1,390.4l-0.8,1.8l-1,2.2l-1.2,2.5
	l-1.3,2.6l-1.3,2.6l-1.2,2.5l-1.1,2.2l-0.8,1.5l-0.1,0.2l-0.6,1.1l-0.3,0.4l-2-1.6L207,404l-7.8-6.3l-0.4-0.3l-7.8-6.3l-2.5-2
	l-7.8-6.3l-3.8-3.1l-7.8-6.3l-4.5-3.7l-7.8-6.3l-4.5-3.7l-7.8-6.3l-3.8-3.1l-7.8-6.3l-2.5-2l-7.8-6.3l-0.4-0.3l-5.4-4.4l-0.7-0.5
	l-3.8-3.4l6.6-5.2l5.3-4.1l4.2-2.7l1.6-1.2l1,0.8l4.3,3.4l6.6,5.2l7.9,6.2l0.6,0.4l7.9,6.2l1.9,1.5l7.9,6.2l2.7,2.1l7.9,6.2l3.1,2.4
	l7.8,6.2l2.9,2.3l7.8,6.2l2.3,1.9l7.8,6.3l1.2,1l7.4,6l5.3,4.4l0.3,0.4L224.1,390.4z M342.4,425.3c-17.5,25.2-40.6,46.7-65.9,64
	c-4.2-11.7-8-23.9-11.8-35.7c0.1-0.4-0.6-1-0.1-1.2c1.3,0.1,3.9-0.3,5.3-0.3c30.7-9.1,52.6-37.6,66.3-65.3
	c12.2-23.9,18.2-51.4,22-77.8c6.1-7.9,14.1-14.7,21.1-21.8C383.5,335.6,368.4,384.9,342.4,425.3z M347.7,119.8l-2,2.1
	c4,2.9,12.1,8.8,16.2,11.8c7,6.9,14.6,17.9,16.9,27.7c14.3,41-13,92.4-57.1,98.8c-9.8-0.7-22.5,0-31.4-4.8
	c-14.6-3.9-27.4-14.5-39.5-23.1c-1.8-1.5-1.9-1.5-3.3,0.4c-4.3,6-10.2,14.9-14.3,21.1c-15.5,23.4-31,48-46.9,71.2
	c-1.8,3.2-2.9,1.3-5.3-0.4c-6.3-4.6-13.7-10.2-19.9-14.9c-8.5-6.5-17.8-13.4-26.2-20c12-29.2,26.5-59,44-85.4
	c60.4-96.9,162.3-165.7,275-184.4C419.1,53.5,382.6,86.2,347.7,119.8z"/>
</svg>
