<?xml version="1.0" encoding="utf-8"?>
<!-- Generator: Adobe Illustrator 24.3.0, SVG Export Plug-In . SVG Version: 6.00 Build 0)  -->
<svg version="1.1" id="Слой_1" xmlns="http://www.w3.org/2000/svg" xmlns:xlink="http://www.w3.org/1999/xlink" x="0px" y="0px"
	 viewBox="0 0 265.3 47" style="enable-background:new 0 0 265.3 47;" xml:space="preserve">
<style type="text/css">
	.st0{fill:url(#SVGID_1_);}
</style>
<linearGradient id="SVGID_1_" gradientUnits="userSpaceOnUse" x1="132.67" y1="265.2498" x2="132.67" y2="306.7516" gradientTransform="matrix(1 0 0 -1 0 311.0859)">
	<stop  offset="0.4218" style="stop-color:#00B8EE"/>
	<stop  offset="1" style="stop-color:#0076F0"/>
</linearGradient>
<path class="st0" d="M20.3,47C-8.8,41.4-6-1.6,25,0c3.9,0.2,7.8,1.1,11.3,2.8C16.4-4.5-2.4,12.9,5.2,33.1C7.9,39.7,14,44.3,20.3,47z
	 M45.6,1.2c0.8,0.9,0,5.6-0.2,6.9c-0.8,4.6-2.1,9.3-5.2,12.9c0.6,3.7,0.2,7.2-1.5,10.6c-1,1.8-2.1,3.5-3.6,4.9
	c-1.3,1.5-3,2.7-4.6,3.9c-0.5-0.9-0.8-2.1-1.1-3.1c-0.6-1.7-1.1-3.6-1.7-5.3c-0.9,2.2-1.6,4.4-2.5,6.6c-0.2,0.3-0.3,0.9-0.6,1.1
	c-0.6-0.5-1.3-1.1-1.9-1.6c-3.3-2.7-6.6-5.4-10-7.8c-0.2-0.1-0.5-0.3-0.6-0.5c0.5-0.5,1.3-1,1.8-1.5c1.1-0.8,2.2-1.7,3.3-2.6
	c0.5-0.4,1.2-0.9,1.5-1.4c-2.9-0.7-6-0.8-8.9-1.2c0.8-3.4,3.2-6.3,5.7-8.7c2.3-1.9,5-3.4,7.9-3.9c0.9-0.3,1.9-0.3,2.8-0.4
	c0.2,0,0.9,0,1-0.2C32.4,5.4,38.8,2.3,45.6,1.2z M21.2,15.2c1.4-1.1,2.9-2.2,4.3-3.3c-0.9,0.2-2,0.2-2.9,0.5
	c-4.7,1.2-8.6,4.9-10.5,9.3c0,0.1-0.2,0.4,0,0.4c1.2,0.1,2.5,0.3,3.7,0.4C17.2,19.8,18.7,17,21.2,15.2z M24.7,35.9l-0.2-0.1
	l-0.5-0.4L24,35.3l-0.6-0.5l-0.3-0.3l-0.6-0.5l-0.4-0.4l-0.6-0.5L21,32.8l-0.6-0.5l-0.5-0.4l-0.6-0.5l-0.4-0.4l-0.6-0.5L18,30.4
	l-0.6-0.5l-0.1-0.1l-0.6-0.5l-0.5-0.4l-0.5-0.4L15.3,29L15,29.2l-0.1,0.1l0.2,0.2l0.5,0.4l0.2,0.2l0.6,0.5l0.4,0.3l0.6,0.5l0.5,0.4
	l0.6,0.5l0.6,0.5l0.6,0.5l0.6,0.5l0.6,0.5l0.5,0.4l0.6,0.5l0.4,0.3l0.6,0.5L23,36l0.6,0.5l0.5,0.4l0.2,0.2l0,0l0-0.1l0-0.1l0,0
	l0-0.1l0.1-0.1l0.1-0.2l0.1-0.2l0.1-0.1l0-0.1L24.7,35.9L24.7,35.9z M25.8,33.6l-0.2-0.1l-0.4-0.4l-0.1,0l-0.6-0.5l-0.2-0.2
	l-0.6-0.5l-0.3-0.3l-0.6-0.5l-0.4-0.3l-0.6-0.5L21.5,30l-0.6-0.5l-0.3-0.3L20,28.8l-0.2-0.2l-0.6-0.5l-0.1,0l-0.6-0.5l-0.7-0.6
	l-0.5,0.4l0,0l-0.8,0.7l0.1,0.1l0.4,0.3l0.5,0.4l0.1,0.1l0.6,0.5l0.3,0.2L19,30l0.4,0.3l0.6,0.5l0.4,0.4l0.6,0.5l0.4,0.4l0.6,0.5
	l0.4,0.3l0.6,0.5l0.3,0.2l0.6,0.5l0.1,0.1l0.6,0.5L25,35l0.2,0.1l0,0l0-0.1l0,0l0-0.1l0.1-0.2l0.1-0.2l0.1-0.2l0.1-0.2l0.1-0.2
	l0.1-0.2L25.8,33.6L25.8,33.6L25.8,33.6L25.8,33.6z M27.1,31.1L27.1,31.1l-0.4-0.4l-0.6-0.5L26,30.2l-0.6-0.5l-0.2-0.1l-0.6-0.5
	l-0.2-0.2l-0.6-0.5l-0.2-0.2L23,27.8l-0.2-0.2l-0.6-0.5L22,27l-0.6-0.5l0,0L20.8,26l-0.5-0.4l-0.3-0.3l-0.1-0.1l-0.1,0.1l-0.3,0.2
	L19,25.9l-0.5,0.4l0.3,0.3l0.1,0l0.4,0.3l0,0l0.6,0.5l0.2,0.2l0.6,0.5l0.3,0.2l0.6,0.5l0.3,0.3l0.6,0.5l0.3,0.3l0.6,0.5l0.3,0.2
	l0.6,0.5l0.2,0.2l0.6,0.5l0,0l0.6,0.5l0.4,0.3l0.2,0.1l0,0l0-0.1l0,0l0.1-0.1l0.1-0.2l0.1-0.2l0.1-0.2l0.1-0.2l0.1-0.2l0.1-0.2
	L27.1,31.1L27.1,31.1z M39,23.3c-0.5,0.5-1.1,1.1-1.6,1.7c-0.3,2-0.8,4.1-1.7,6c-1.1,2.1-2.7,4.3-5.1,5c-0.1,0-0.3,0-0.4,0
	c0,0,0,0.1,0,0.1c0.3,0.9,0.6,1.8,0.9,2.7c1.9-1.3,3.7-3,5.1-4.9C38.1,30.8,39.3,27,39,23.3z M44.7,2.8c-8.6,1.4-16.4,6.7-21.1,14.1
	c-1.3,2-2.5,4.3-3.4,6.6c0.6,0.5,1.4,1,2,1.5c0.5,0.4,1,0.8,1.5,1.1c0.2,0.1,0.3,0.3,0.4,0c1.2-1.8,2.4-3.7,3.6-5.5
	c0.3-0.5,0.8-1.2,1.1-1.6c0.1-0.1,0.1-0.1,0.3,0c0.9,0.7,1.9,1.5,3,1.8c0.7,0.4,1.7,0.3,2.4,0.4c3.4-0.5,5.5-4.4,4.4-7.6
	c-0.2-0.8-0.8-1.6-1.3-2.1c-0.3-0.2-0.9-0.7-1.2-0.9l0.2-0.2C39.2,7.9,42,5.3,44.7,2.8z M52.6,14.7c0,0.3,0.3,0.6,0.6,0.6
	c0.2,0,0.4-0.1,0.5-0.3h2v1.3h-2c-0.1-0.2-0.3-0.3-0.5-0.3c-0.3,0-0.6,0.3-0.6,0.6c0,0.3,0.3,0.6,0.6,0.6c0.2,0,0.4-0.1,0.5-0.3h2
	v1.5h-5l-0.1-5.9l3.8-3.8h7.2v5.1h-2.2l-0.7,1.2h-2.2v-1.2l-0.8,0.8h-2c-0.1-0.2-0.3-0.3-0.5-0.3C52.9,14.1,52.6,14.4,52.6,14.7z
	 M56.2,11.7l0.9,0.3v-1.7l-0.9-0.4V11.7z M54.7,11.6l1,0.4v-1.7l-1-0.4V11.6z M58.7,15.3h-2.2v1h2.8L60,15h1.5v-1h-2L58.7,15.3z
	 M60.5,15.9h1.1v21.3h-2.3v-5c0.2-0.1,0.4-0.3,0.4-0.5c0-0.3-0.3-0.6-0.6-0.6c-0.3,0-0.6,0.3-0.6,0.6c0,0.2,0.1,0.4,0.3,0.5v5h-2.3
	V35h2.1l-1.4-0.8h-0.7v-0.1h2.1l-1.4-0.5h-0.7v-0.2h2.1l-1.4-0.5h-0.7v-2.7H57v-0.5l-0.5-0.3v-2.7h0.9v-1c-0.1,0-0.2-0.2-0.2-0.3
	c0-0.2,0.1-0.3,0.3-0.3c0.2,0,0.3,0.1,0.3,0.3c0,0.1-0.1,0.2-0.2,0.3v1h0l0.4,0.4v0.6h-0.6v0.9l0.7,0.5v1.2h0.3h2.2V26l-1.9-2h-2.3
	v-2h4.3v-1h-4.3v-0.2h4.3V20h-4.3v-0.2h4.3c0.1,0,0.1,0.1,0.2,0.1c0.2,0,0.4-0.2,0.4-0.4S61.1,19,60.9,19c-0.1,0-0.3,0.1-0.3,0.2
	h-4.2v-2h3.3L60.5,15.9z M57.9,29.2l-0.6-0.5v-1.1h-0.5V29l0.6,0.5v0.8h0.5V29.2z M60,26.2h-0.9L59,26.7h0.9L60,26.2z M59.8,27.4
	l0.2-0.5h-0.9L59,27.4H59.8z M76.7,8.5h13.1v2.2h-2c-0.1-0.2-0.3-0.3-0.6-0.3c-0.4,0-0.7,0.3-0.7,0.7c0,0.4,0.3,0.7,0.7,0.7
	c0.3,0,0.5-0.2,0.6-0.4h2v12.1h-2.3l-0.8-1.2h-1.9v-8.8h-5.9l-2.6,2.8h-0.6h-2.7v2.7c-0.3,0.1-0.5,0.3-0.5,0.6
	c0,0.3,0.3,0.6,0.6,0.6c0.3,0,0.6-0.3,0.6-0.6c0-0.2-0.1-0.4-0.3-0.5v-2.2h2.2v5.8h10.6l0.9,1.4h2.6v3.8H73.7l-0.9-1.4h-2.2v-0.9
	h3.5c0.1,0.2,0.3,0.4,0.6,0.4c0.4,0,0.7-0.3,0.7-0.7c0-0.4-0.3-0.7-0.7-0.7c-0.2,0-0.5,0.1-0.6,0.3h-3.5V14.6L76.7,8.5z M85.1,25.8
	l1,0.4v-1.7l-1-0.4V25.8z M86.8,15.2l1,0.4v-1.7l-1-0.4V15.2z M85.1,15.2l1,0.4v-1.7l-1-0.4V15.2z M72.9,29h2.7v-0.8h-2.1l-0.9-1.3
	h-2v0.9h1.5L72.9,29z M87.5,30c0.2,0.1,0.3,0.3,0.3,0.5c0,0.3-0.3,0.6-0.6,0.6c-0.3,0-0.6-0.3-0.6-0.6c0-0.2,0.1-0.4,0.3-0.5v-1.8
	h-2.2V37h5v-8.8h-2.2V30L87.5,30z M72.4,30l-0.8-1.2h-1.1v8.3h2.2v-2.3c-0.2-0.1-0.3-0.3-0.3-0.5c0-0.3,0.3-0.6,0.6-0.6
	c0.3,0,0.6,0.3,0.6,0.6c0,0.2-0.1,0.4-0.3,0.5v2.3h2.2V30H72.4z M101.4,15.2h-2.3v1h2.7l0.8-1.2h1.5v-1h-2L101.4,15.2z M95.9,8.5
	h15.3v2.2h-3.4c-0.1-0.2-0.3-0.3-0.5-0.3c-0.3,0-0.6,0.3-0.6,0.6c0,0.3,0.3,0.6,0.6,0.6c0.2,0,0.4-0.1,0.5-0.3h3.4v6.8H109v-2.8
	c0.2-0.1,0.3-0.3,0.3-0.5c0-0.3-0.3-0.6-0.6-0.6c-0.3,0-0.6,0.3-0.6,0.6c0,0.2,0.1,0.4,0.3,0.5v2.8h-2.3v-4.7h-4.3l-0.8,1.3h-1.9
	v-1.2l-1.2,0l-0.8,0.8h-2c-0.1-0.2-0.3-0.3-0.5-0.3c-0.3,0-0.6,0.3-0.6,0.6c0,0.3,0.3,0.6,0.6,0.6c0.2,0,0.4-0.1,0.5-0.3h1.9v3.2h-5
	v-5.8L95.9,8.5z M97.6,11.4l1.1,0.4v-1.6l-1.1-0.4V11.4z M96.1,11.4l1.1,0.4v-1.6l-1.1-0.4V11.4z M130.1,21.5h2.5v3.6h-16l-0.8-1.2
	h-2.3V8.5h2.2v2.7c-0.2,0.1-0.3,0.3-0.3,0.5c0,0.3,0.3,0.6,0.6,0.6c0.3,0,0.6-0.3,0.6-0.6c0-0.2-0.1-0.4-0.3-0.5V8.5h2.3v11.8h10.7
	L130.1,21.5z M119.6,22.2l-1.1-0.4v1.7l1.1,0.4V22.2z M127.7,8.5h5V21h-2.2v-3c0.2-0.1,0.3-0.3,0.3-0.5c0-0.3-0.3-0.6-0.6-0.6
	c-0.3,0-0.6,0.3-0.6,0.6c0,0.2,0.1,0.4,0.3,0.5v2.3l-0.4-0.5h-1.8V8.5z M129.8,11.2l1.1,0.4V10l-1.1-0.4V11.2z M128.3,11.2l1.1,0.4
	V10l-1.1-0.4V11.2z M102.3,17h-3.3v20h2.3V32c-0.2-0.1-0.3-0.3-0.3-0.5c0-0.3,0.3-0.6,0.6-0.6c0.3,0,0.6,0.3,0.6,0.6
	c0,0.2-0.1,0.4-0.3,0.5v5.1h2.2V15.8h-1L102.3,17z M115.5,24.5h-1.9v0.9h1.6l0.8,1.2h2.7v-0.8h-2.2L115.5,24.5z M130.5,28.8
	c0.2,0.1,0.3,0.3,0.3,0.5c0,0.3-0.3,0.6-0.6,0.6c-0.3,0-0.6-0.3-0.6-0.6c0-0.2,0.1-0.4,0.3-0.5v-3.1h-2.2v11.3h5V25.8h-2.2V28.8z
	 M114.6,26.5h-1.1v10.6h2.2v-5.9c-0.2-0.1-0.3-0.3-0.3-0.5c0-0.3,0.3-0.6,0.6-0.6c0.3,0,0.6,0.3,0.6,0.6c0,0.2-0.1,0.4-0.3,0.5v5.9
	h2.2v-9.5h-3.2L114.6,26.5z M135.1,37.1h7.4v-2.2h-3.1c-0.1,0.2-0.3,0.3-0.5,0.3c-0.3,0-0.6-0.3-0.6-0.6c0-0.3,0.3-0.6,0.6-0.6
	c0.2,0,0.4,0.1,0.5,0.3h3.1v-2.2h-7.4V37.1z M169.3,25.7h-2.1v0.9h2.6l0.8-1.2h1.5v-0.9h-2L169.3,25.7z M167.1,29.4v2.1h1.2v-2.1
	H167.1z M169.9,15.6c0.2,0.1,0.3,0.3,0.3,0.5c0,0.3-0.3,0.6-0.6,0.6c-0.3,0-0.6-0.3-0.6-0.6c0-0.2,0.1-0.4,0.3-0.5V14h-2.2v4.2h4.9
	V14h-2.2V15.6L169.9,15.6z M155.4,31.6h2.5v-4.2h-2.2v1.6c0.2,0.1,0.3,0.3,0.3,0.5c0,0.3-0.3,0.6-0.6,0.6c-0.3,0-0.6-0.3-0.6-0.6
	c0-0.2,0.1-0.4,0.3-0.5v-1.6H153v5.5h1.6L155.4,31.6z M170.3,27.5h-3.1v1.4h1.8v3.1h-13.2l-0.9,1.3H153V37h19.1v-2.2h-3.8
	c-0.1,0.2-0.3,0.3-0.5,0.3c-0.3,0-0.6-0.3-0.6-0.6c0-0.3,0.3-0.6,0.6-0.6c0.2,0,0.4,0.1,0.5,0.3h3.8v-7.9h-1L170.3,27.5z M159.1,8.5
	h13v2.1h-3.7c-0.1-0.2-0.3-0.3-0.5-0.3c-0.3,0-0.6,0.3-0.6,0.6c0,0.3,0.3,0.6,0.6,0.6c0.2,0,0.4-0.1,0.5-0.3h3.7v2.2h-10.9l-2.7,2.7
	h-2.7h-0.6v1.9c-0.2,0.1-0.3,0.3-0.3,0.5c0,0.3,0.3,0.6,0.6,0.6c0.3,0,0.6-0.3,0.6-0.6c0-0.2-0.1-0.4-0.3-0.5v-1.3h2.1v3.6h14.2V24
	h-2.3l-0.8,1.2h-16v-2.2h4.9c0.1,0.2,0.3,0.3,0.5,0.3c0.3,0,0.6-0.3,0.6-0.6c0-0.3-0.3-0.6-0.6-0.6c-0.2,0-0.4,0.1-0.5,0.3H153v-7.9
	L159.1,8.5z M167.7,23.4l1.1,0.4v-1.6l-1.1-0.4V23.4z M166.2,23.4l1.1,0.4v-1.6l-1.1-0.4V23.4z M179.4,8.5h-2.2v2.6
	c0.2,0.1,0.3,0.3,0.3,0.5c0,0.3-0.3,0.6-0.6,0.6s-0.6-0.3-0.6-0.6c0-0.2,0.1-0.4,0.3-0.5V8.5h-2.2V15h4.9V8.5L179.4,8.5z
	 M176.8,21.9h2.6v-0.9h-2.1l-0.8-1.2h-2v0.9h1.5L176.8,21.9z M176.7,19.2h-2.2v-3.8h14.1v2.2h-4.5c-0.1-0.2-0.3-0.3-0.5-0.3
	c-0.3,0-0.6,0.3-0.6,0.6c0,0.3,0.3,0.6,0.6,0.6c0.2,0,0.4-0.1,0.5-0.3h4.5v2.2h-11L176.7,19.2z M179,18.7l1.1,0.4v-1.6L179,17V18.7z
	 M177.5,18.7l1.1,0.4v-1.6l-1.1-0.4V18.7z M188.6,28.7l-0.1,0.2h2.4v-1.3c-0.2-0.1-0.3-0.3-0.3-0.5c0-0.3,0.3-0.6,0.6-0.6
	c0.3,0,0.6,0.3,0.6,0.6c0,0.2-0.1,0.4-0.3,0.5v1.9h-0.6H188l-2.6,2.6h-6l0.1-9.1h-3.2l-0.8-1.2h-1v12.5h4.3c0.1-0.2,0.3-0.3,0.5-0.3
	c0.3,0,0.6,0.3,0.6,0.6c0,0.3-0.3,0.6-0.6,0.6c-0.2,0-0.4-0.1-0.5-0.3h-4.3V37h12.9l6.2-6.2V25h-5V28.7z M199.4,31.2h1.5v-0.9h-2
	l-0.8,1.2h-2.1v0.9h2.6L199.4,31.2z M212.9,17.9c0.2,0.1,0.3,0.3,0.3,0.5c0,0.3-0.3,0.6-0.6,0.6c-0.3,0-0.6-0.3-0.6-0.6
	c0-0.2,0.1-0.4,0.3-0.5v-2.4H210l0.1,13.2l0,0h2.3v-2.2c-0.2-0.1-0.3-0.3-0.3-0.5c0-0.3,0.3-0.6,0.6-0.6c0.3,0,0.6,0.3,0.6,0.6
	c0,0.2-0.1,0.4-0.3,0.5v2.7h-0.6h-2.7l-0.1,0.1l-2.8,2.6h-6.9l-0.8,1.3h-3.2v1h4.9c0.1-0.2,0.3-0.3,0.5-0.3c0.3,0,0.6,0.3,0.6,0.6
	c0,0.3-0.3,0.6-0.6,0.6c-0.2,0-0.4-0.1-0.5-0.3h-4.9v2.1H209l6.1-6.1V15.5h-2.2L212.9,17.9L212.9,17.9z M197.9,30.9h-2V15.5h2.2v6
	c-0.2,0.1-0.3,0.3-0.3,0.5c0,0.3,0.3,0.6,0.6,0.6c0.3,0,0.6-0.3,0.6-0.6c0-0.2-0.1-0.4-0.3-0.5v-6h2.2v14.2h-2.2L197.9,30.9z
	 M199.3,28l1.1,0.4v-1.6l-1.1-0.4V28z M197.8,28l1.1,0.4v-1.6l-1.1-0.4V28z M231.5,15h2.4l0.8-1.2h1.9V8.4h-5.1L231.5,15L231.5,15z
	 M233.8,21h-2.1v0.9h2.6l0.8-1.2h1.5v-0.9h-2L233.8,21z M235.5,21.7h1V37h-2.2v-3.4c0.2-0.1,0.3-0.3,0.3-0.5c0-0.3-0.3-0.6-0.6-0.6
	c-0.3,0-0.6,0.3-0.6,0.6c0,0.2,0.1,0.4,0.3,0.5V37h-16.4v-2.2h4c0.1,0.2,0.3,0.3,0.5,0.3c0.3,0,0.6-0.3,0.6-0.6
	c0-0.3-0.3-0.6-0.6-0.6c-0.2,0-0.4,0.1-0.5,0.3h-4V21.7l3.4-3.4h3.5c0.1,0.2,0.3,0.3,0.5,0.3c0.3,0,0.6-0.3,0.6-0.6
	c0-0.3-0.3-0.6-0.6-0.6c-0.2,0-0.4,0.1-0.5,0.3h-2.9l2.3-2.3h10.4l0.9-1.2h1.6v5.1h-2.3l-0.8,1.1h-7.8l-2.8,2.8h-2.7h-0.6v2.8
	c-0.2,0.1-0.3,0.3-0.3,0.5c0,0.3,0.3,0.6,0.6,0.6c0.3,0,0.6-0.3,0.6-0.6c0-0.2-0.1-0.4-0.3-0.5v-2.2h2.3l0,0v8.2h9.1V23h3.2
	L235.5,21.7z M220.4,30.3l-1.1-0.4v1.7l1.1,0.4V30.3z M222,30.3l-1.1-0.4v1.7L222,32V30.3z M238.9,13.4h5v-2.2H242
	c-0.1,0.2-0.3,0.3-0.5,0.3c-0.3,0-0.6-0.3-0.6-0.6c0-0.3,0.3-0.6,0.6-0.6c0.2,0,0.4,0.1,0.5,0.3h1.9V8.4h-5V13.4z M241,26.6h-2.1
	v0.8h2.7l0.8-1.2h1.5v-0.9h-2.1L241,26.6z M238.9,15.5h5v9.3h-2.3l-0.8,1.2h-1.9v-7.5h2c0.1,0.2,0.3,0.3,0.5,0.3
	c0.3,0,0.6-0.3,0.6-0.6c0-0.3-0.3-0.6-0.6-0.6c-0.2,0-0.4,0.1-0.5,0.3h-2V15.5z M240.5,21.9l-1.1-0.4v1.7l1.1,0.4V21.9z M242,21.9
	l-1.1-0.4v1.7l1.1,0.4V21.9z M242,28.5h-3.1v8.6h2.2v-5.5c-0.2-0.1-0.3-0.3-0.3-0.5c0-0.3,0.3-0.6,0.6-0.6s0.6,0.3,0.6,0.6
	c0,0.2-0.1,0.4-0.3,0.5v5.5h2.2v-9.9h-1.1L242,28.5z M262.5,21h-2.3v1h2.8l0.8-1.2h1.5v-1h-2L262.5,21z M259.9,18.1
	c0,0.3,0.3,0.6,0.6,0.6c0.2,0,0.4-0.1,0.5-0.3h4.3v0.9h-2.3l-0.9,1.3h-11V32h5.8l2.7-2.7l0,0h2.8h0.6v-2.8c0.2-0.1,0.3-0.3,0.3-0.5
	c0-0.3-0.3-0.6-0.6-0.6s-0.6,0.3-0.6,0.6c0,0.2,0.1,0.4,0.3,0.5v2.2h-2.3l0,0v-5.8h3.3l0.8-1.3h1v9.3l-6.1,6.1h-13.1v-2.2h5.3
	c0.1,0.2,0.3,0.3,0.5,0.3c0.3,0,0.6-0.3,0.6-0.6c0-0.3-0.3-0.6-0.6-0.6c-0.2,0-0.4,0.1-0.5,0.3h-5.3V15.5h2.3v3.8
	c-0.2,0.1-0.3,0.3-0.3,0.5c0,0.3,0.3,0.6,0.6,0.6c0.3,0,0.6-0.3,0.6-0.6c0-0.2-0.1-0.4-0.3-0.5v-3.8h16.3v2.3H261
	c-0.1-0.2-0.3-0.3-0.5-0.3C260.1,17.5,259.9,17.7,259.9,18.1z M249.2,30.4l-1.1-0.4v1.7l1.1,0.4V30.4z M250.8,30.4l-1.1-0.4v1.7
	l1.1,0.4V30.4z"/>
</svg>
