<?xml version="1.0" encoding="utf-8"?>
<!-- Generator: Adobe Illustrator 24.3.0, SVG Export Plug-In . SVG Version: 6.00 Build 0)  -->
<svg version="1.1" id="Слой_1" xmlns="http://www.w3.org/2000/svg" xmlns:xlink="http://www.w3.org/1999/xlink" x="0px" y="0px"
	 viewBox="0 0 3462 613" style="enable-background:new 0 0 3462 613;" xml:space="preserve">
<style type="text/css">
	.st0{fill:#FFFFFF;}
</style>
<path class="st0" d="M325.9,0.6c-404.4-21.6-441.2,539.5-61,612.3c-82.8-35.8-162.3-96-197.6-181.3c-98-263.1,146.7-489.9,405.8-394
	C427.2,15.2,376.8,2.9,325.9,0.6z"/>
<path class="st0" d="M595.2,16.1c-88.6,13.9-173,53.8-238.9,114.8c-1.2,2.4-10.2,2.5-12.5,2.8c-11.7,1.3-25.8,1.4-37.1,4.9
	c-38.2,7.5-73.7,26.5-103.3,51.3c-33,30.7-63.2,68.8-74.1,113.3c37.9,4.8,78.6,6.5,116.6,15c-4.3,7-14.2,13.1-20.2,18.7
	c-13.8,11.2-28.9,23-42.9,34c-7.4,6.1-17.1,13-24.1,19.6c1.3,2.3,5.5,5,7.5,6.7c45,31.7,88.1,66.6,130.6,101.5
	c8,6.5,17.4,14.4,25.2,21.1c3.7-2.6,5.8-10.6,7.9-14.4c11.9-28.1,21.7-57.9,33.1-86.1c8,22.5,14.5,46.6,22,69.3
	c4.7,12.7,7.8,28.4,14.9,39.9c20.4-15.8,41.9-32,59.4-51.1c18.7-18.4,34.1-41.3,46.7-64.2c22.5-44.2,27.9-89.6,19.9-138.3
	c39.4-47.1,56.7-108.8,67.3-168.3C595.8,88.7,605.9,27.7,595.2,16.1z M207.1,292.5c-16.1-1.1-32.6-3.3-48.6-4.9
	c-3.4,0.5-0.5-3.4-0.4-4.8c24.6-57.7,75.4-105.7,136.7-121.1c11.4-3.8,25.8-4.5,37.6-6.5c-17.9,14.8-38.2,28.5-56.2,43.2
	C243.7,221.2,224.4,257.9,207.1,292.5z M322.7,467.7l-0.4,0.9l-0.5,1.3l-0.6,1.7l-0.7,1.9l-0.7,2l-0.7,2l-0.7,1.9l-0.6,1.7l-0.2,0.4
	l-0.4,0.9l-0.4,0.9l-0.2,0.3l-2.5-2l-6.7-5.6l-7.7-6.4l-2.4-2l-7.6-6.4l-4.9-4.2l-7.6-6.4l-6.6-5.6l-7.6-6.4l-7.5-6.3l-7.6-6.4
	l-7.5-6.3l-7.6-6.4l-6.6-5.6l-7.6-6.4l-5-4.2l-7.7-6.4l-2.4-2l-6.7-5.6l-2.5-2l1.2-1l3.5-2.7l6.4-5.1l6.1,4.6l6.2,5.1l7.7,6.3
	l1.6,1.3l7.7,6.3l4,3.3l7.7,6.3l5.6,4.6l7.7,6.3l6.4,5.2l7.7,6.3l6.4,5.2l7.7,6.3l5.6,4.6l7.7,6.3l4,3.3l7.7,6.3l1.6,1.3l6.2,5.1
	l2.2,1.8L322.7,467.7z M336.7,438.2l-0.5,1.1l-0.8,1.6l-0.9,2l-1.1,2.3l-1.1,2.4l-1.1,2.4l-1.1,2.3l-0.9,2l-0.5,1.1l-0.2,0.5
	L328,457l-0.2,0.4l-2.2-1.8l-5.9-4.9l-7.7-6.4l-1.2-1l-7.7-6.4l-3.4-2.9l-7.7-6.4l-4.9-4.1l-7.7-6.4l-5.7-4.7L266,406l-5.7-4.7
	l-7.7-6.4l-4.9-4.1l-7.7-6.4l-3.4-2.9l-7.7-6.4l-1.2-1l-5.9-4.9l-4.7-3.9l-1.3-1.1l10.6-8.8l0.1-0.1l6.5-4.7l9.2,8.3l7.4,6.6
	l0.7,0.6l7.7,6.4l2.9,2.4l7.7,6.4l4.3,3.6l7.7,6.4l5.1,4.2l7.7,6.4l5,4.2l7.7,6.4l4.3,3.6l7.7,6.4l2.9,2.4l7.7,6.4l0.7,0.6l5.6,4.6
	l2,1.7H336.7z M353.9,405.3l-0.5,1.2l-0.8,1.8l-1,2.2l-1.2,2.5l-1.3,2.6l-1.3,2.6l-1.2,2.5l-1.1,2.2l-0.8,1.5l-0.1,0.2l-0.6,1.1
	l-0.3,0.4l-2-1.6l-5.4-4.4l-7.8-6.3l-0.4-0.3l-7.8-6.3l-2.5-2l-7.8-6.3l-3.8-3.1l-7.8-6.3l-4.5-3.7l-7.8-6.3l-4.5-3.7l-7.8-6.3
	l-3.8-3.1l-7.8-6.3l-2.5-2l-7.8-6.3l-0.4-0.3l-5.4-4.4l-0.7-0.5l-3.8-3.4l6.6-5.2l5.3-4.1l4.2-2.7l1.6-1.2l1,0.8l4.3,3.4l6.6,5.2
	l7.9,6.2l0.6,0.4l7.9,6.2l1.9,1.5l7.9,6.2l2.7,2.1l7.9,6.2l3.1,2.4l7.8,6.2l2.9,2.3l7.8,6.2l2.3,1.9l7.8,6.3l1.2,1l7.4,6l5.3,4.4
	L353.9,405.3z M471.7,441.4c-17.5,25.2-40.6,46.7-65.9,64c-4.2-11.7-8-23.9-11.8-35.7c0.1-0.4-0.6-1-0.1-1.2
	c1.3,0.1,3.9-0.3,5.3-0.3c30.7-9.1,52.6-37.6,66.3-65.3c12.2-23.9,18.2-51.4,22-77.8c6.1-7.9,14.1-14.7,21.1-21.8
	C512.8,351.7,497.7,401,471.7,441.4z M477,135.9l-2,2.1c4,2.9,12.1,8.8,16.2,11.8c7,6.9,14.6,17.9,16.9,27.7
	c14.3,41-13,92.4-57.1,98.8c-9.8-0.7-22.5,0-31.4-4.8c-14.6-3.9-27.4-14.5-39.5-23.1c-1.8-1.5-1.9-1.5-3.3,0.4
	c-4.3,6-10.2,14.9-14.3,21.1c-15.5,23.4-31,48-46.9,71.2c-1.8,3.2-2.9,1.3-5.3-0.4c-6.3-4.6-13.7-10.2-19.9-14.9
	c-8.5-6.5-17.8-13.4-26.2-20c12-29.2,26.5-59,44-85.4c60.4-96.9,162.3-165.7,275-184.4C548.4,69.6,511.9,102.3,477,135.9z"/>
<path class="st0" d="M709,111l-49.9,49.9l1.6,77.1h65.3v-19.2h-25.5v0c-1.3,2.3-3.7,3.9-6.6,3.9c-4.1,0-7.5-3.4-7.5-7.5
	s3.4-7.5,7.5-7.5c2.8,0,5.3,1.6,6.6,3.9h25.5v-16.6h-25.5v0c-1.3,2.3-3.7,3.9-6.6,3.9c-4.1,0-7.5-3.4-7.5-7.5c0-4.1,3.4-7.5,7.5-7.5
	c2.8,0,5.3,1.6,6.6,3.9h26.1l10-10v15.7h28.2l9.4-15.3h28.6V111L709,111L709,111z M726.5,156.6l-12.5-4.8v-23l12.5,5.3V156.6z
	 M745.4,156.6l-11.9-4v-23.7l11.9,5V156.6z"/>
<path class="st0" d="M802.8,183.2v12.6h-19.6L773,211.4h-36v-12.6h28.9l11.2-15.7H802.8z"/>
<path class="st0" d="M789.1,207.2l-10.7,17.2h-42.5v26.2h54.3c1-1.4,2.6-2.4,4.4-2.4c2.9,0,5.3,2.4,5.3,5.3s-2.4,5.3-5.3,5.3
	c-1,0-2-0.3-2.8-0.8h-56v2.2h56v10.3h-56v2.3h56v13.6h-56v26.4h30.5l25.4,25.6v55.6h-29.1h-4.4v-15l-8.5-6.5v-12.1h8v-8.2l-5-4.9
	h-0.6v-13.1c1.4-0.6,2.5-2,2.5-3.6c0-2.2-1.8-3.9-3.9-3.9s-3.9,1.8-3.9,3.9c0,1.7,1,3.1,2.5,3.6v13.1h-12.1v35.6l6.4,4v7h-7.8v35.3
	h9.6l18.2,6.3h-27.8v2.5h9.6l18.2,6.3h-27.8v1.2h9.6l18.2,9.9h-27.8V485h30.2v-65.6h0c-2.5-1.3-4.2-3.9-4.2-7c0-4.3,3.5-7.9,7.9-7.9
	s7.9,3.5,7.9,7.9c0,3.2-1.9,5.9-4.6,7.1V485h29.7V207.2H789.1z M755.3,394.1h-6.1v-9.8l-8-5.9v-18h6.4V375l7.7,6L755.3,394.1
	L755.3,394.1z"/>
<path class="st0" d="M771.2,341l-1.9,6.6h11.3l2.3-6.6H771.2z"/>
<path class="st0" d="M771.2,351.2l-1.9,6.6h11.3l2.3-6.6H771.2z"/>
<path class="st0" d="M1137.7,134.9c3.2,0,6,1.8,7.4,4.4h25.8v-29h-170.5l-80,80v133.5h46.1c1.4-2.6,4.2-4.4,7.4-4.4
	c4.7,0,8.5,3.8,8.5,8.5s-3.8,8.5-8.5,8.5c-3.5,0-6.5-2.1-7.8-5.2h-45.7v12h29.2l11.5,18H1171v-49h-33.9l-11.9-17.6H986.3v-76h-29.2
	v29c2.4,1.4,4,4,4,6.9c0,4.4-3.6,8-8,8c-4.4,0-8-3.6-8-8c0-3.7,2.5-6.8,5.9-7.7v-35.1h35.3v0h7.8l34.2-36.9h76.9v114.3h24.7
	l10.6,15.5h30.5V146.7h-25.5c-1.3,3-4.3,5.2-7.8,5.2c-4.7,0-8.5-3.8-8.5-8.5C1129.2,138.6,1133,134.9,1137.7,134.9z M1110.7,313.4
	l13.1,5.2v22.6l-13.1-4.8V313.4z M1131.8,174.6l13.1,5.2v22.6l-13.1-4.8V174.6z M1123.8,202.4l-13.1-4.8v-23.1l13.1,5.2V202.4z"/>
<path class="st0" d="M920.5,349.7V362h20.2l10.6,15.7h35v-10.8h-27.8l-11.7-17.1H920.5z"/>
<path class="st0" d="M1142.1,367.1v23.5c2.4,1.4,4.1,4,4.1,6.9c0,4.4-3.6,8-8,8c-4.4,0-8-3.6-8-8c0-3,1.6-5.6,4.1-6.9v-23.5h-29v115
	h65.7v-115H1142.1z"/>
<path class="st0" d="M944.4,390.8l-9.9-15.5h-14v108.4h29v-30.3c-2.4-1.4-4.1-4-4.1-6.9c0-4.4,3.6-8,8-8s8,3.6,8,8
	c0,3-1.6,5.6-4.1,6.9v30.3h29v-92.9L944.4,390.8L944.4,390.8z"/>
<path class="st0" d="M1293.1,197.9v12.4h35.5l9.9-16h20.2v-12.4h-26.7l-9.4,16H1293.1z"/>
<path class="st0" d="M1398.9,134.8c3,0,5.6,1.6,6.9,4.1h44.5v-28.6h-199.2l-49.7,50.2v75.2h65v-41.9h-24.9c-1.4,2.4-4,4.1-6.9,4.1
	c-4.4,0-8-3.6-8-8s3.6-8,8-8c3,0,5.6,1.6,6.9,4.1h25.7l10.2-9.8l16,0.1v15.5h25l10.6-17.1h55.7v61.1h29.8v-36.4
	c-2.4-1.4-4.1-4-4.1-6.9c0-4.4,3.6-8,8-8c4.4,0,8,3.6,8,8c0,3-1.6,5.6-4.1,6.9v36.4h28.1v-89h-44.5c-1.4,2.4-4,4.1-6.9,4.1
	c-4.4,0-8-3.6-8-8C1391,138.4,1394.5,134.8,1398.9,134.8z M1267.2,154l-13.9-4.8v-22l13.9,5.6V154z M1287.3,154l-14-4.8v-22l14,5.6
	V154z"/>
<path class="st0" d="M1697.7,280.2l-10.6-16h-139.3V110.3h-29.9v35.1c2.4,1.4,4.1,4,4.1,6.9c0,4.4-3.6,8-8,8c-4.4,0-8-3.6-8-8
	c0-3,1.6-5.6,4.1-6.9v-35.1h-28.8v201.9h29.7l10.6,15.2h209v-47.1L1697.7,280.2L1697.7,280.2z M1560.6,310.6l-14-4.8v-22l14,5.6
	V310.6z"/>
<path class="st0" d="M1665.6,110.3v147.1h24.1l5,6.3v-29.5c-2.4-1.4-4.1-4-4.1-6.9c0-4.4,3.6-8,8-8s8,3.6,8,8c0,3-1.6,5.6-4.1,6.9
	v39.1h28.1V110.3H1665.6z M1687.6,151l-14-4.8v-22l14,5.6V151z M1707.6,151l-14-4.8v-22l14,5.6V151z"/>
<path class="st0" d="M1345.5,206.5l-10.6,15.7h-42.5v261.2h29.6V417c-2.4-1.4-4.1-4-4.1-6.9c0-4.4,3.6-8,8-8c4.4,0,8,3.6,8,8
	c0,3-1.6,5.6-4.1,6.9v66.3h28.8V206.5H1345.5z"/>
<path class="st0" d="M1481.3,319.4v11.9h20.3l10.3,15.5h34.7v-10.6h-28.6l-11.7-16.8H1481.3z"/>
<path class="st0" d="M1702.5,335.8v40c2.4,1.4,4.1,4,4.1,6.9c0,4.4-3.6,8-8,8s-8-3.6-8-8c0-3,1.6-5.6,4.1-6.9v-40h-29.1v147.5h65
	V335.8H1702.5z"/>
<path class="st0" d="M1504.8,360l-9.8-15.2h-13.7v138.4h28.3v-77.2c-2.4-1.4-4.1-4-4.1-6.9c0-4.4,3.6-8,8-8c4.4,0,8,3.6,8,8
	c0,3-1.6,5.6-4.1,6.9v77.2h29.2V360H1504.8z"/>
<path class="st0" d="M1818.6,454.8c-1.4,2.4-4,4.1-7,4.1c-4.4,0-8-3.6-8-8c0-4.4,3.6-8,8-8c3,0,5.6,1.6,7,4.1h40v-28.5h-96.5v64.8
	h96.5v-28.5H1818.6z"/>
<path class="st0" d="M2180.9,335.6v11.3h34.4l10.4-15.5h19.6v-11.9h-25.6l-10.8,16H2180.9z"/>
<path class="st0" d="M2195.9,383.7h-15.5v27.9h15.5V383.7z"/>
<path class="st0" d="M2217,182.6v20.7c2.4,1.4,4.1,4,4.1,6.9c0,4.4-3.6,8-8,8c-4.4,0-8-3.6-8-8c0-3,1.6-5.6,4.1-6.9v-20.7h-28.3
	v54.2h64.4v-54.2H2217z"/>
<path class="st0" d="M2032.2,356v21c2.4,1.4,4.1,4,4.1,6.9c0,4.4-3.6,8-8,8c-4.4,0-8-3.6-8-8c0-3,1.6-5.6,4.1-6.9v-21h-28.3v71.7
	h20.6l10.8-16.3h33V356H2032.2z"/>
<path class="st0" d="M2195.3,454.4c-1.4,2.4-4,4.1-6.9,4.1c-4.4,0-8-3.6-8-8c0-4.4,3.6-8,8-8c3,0,5.6,1.6,6.9,4.1h50V343.6h-13.1
	l-10.8,15.3h-41v18.2h23.2v40.8h-171.7l-11.5,16.8h-24.3v48.2h249.2v-28.6H2195.3z"/>
<path class="st0" d="M2245.3,175.4v-28.7h-48.5c-1.4,2.4-4,4.1-6.9,4.1c-4.4,0-8-3.6-8-8s3.6-8,8-8c3,0,5.6,1.6,6.9,4.1h48.5v-27.9
	h-169.9l-79.3,79.3v102.6h64.3c1.4-2.4,4-4.1,6.9-4.1c4.4,0,8,3.6,8,8c0,4.4-3.6,8-8,8c-3,0-5.6-1.6-6.9-4.1h-64.3V329h209.2
	l10.4-15.9h29.5v-48.5h-185.4v-46.3h-27.3v17.4c2.4,1.4,4.1,4,4.1,6.9c0,4.4-3.6,8-8,8c-4.4,0-8-3.6-8-8c0-3,1.6-5.6,4.1-6.9v-24.6
	h7.8h34.5l35.7-35.7H2245.3L2245.3,175.4z M2188,283.3l14,5.6v21.3l-14-4.8V283.3z M2167.9,283.3l14,5.6v21.3l-14-4.8V283.3z"/>
<path class="st0" d="M2312.8,110.9v34.1c2.4,1.4,4.1,4,4.1,6.9c0,4.4-3.6,8-8,8c-4.4,0-8-3.6-8-8c0-3,1.6-5.6,4.1-6.9v-34.1h-28.3
	v85h64.4v-85H2312.8L2312.8,110.9z"/>
<path class="st0" d="M2340.4,274.7v11.3H2306l-10.4-15.5h-19.6v-11.9h25.6l10.8,16H2340.4z"/>
<path class="st0" d="M2401.9,238.8c-1.4,2.4-4,4.1-6.9,4.1c-4.4,0-8-3.6-8-8c0-4.4,3.6-8,8-8c3,0,5.6,1.6,6.9,4.1h58.1v-29.2h-183.9
	v49h28.9l11.2,16.7h143.7v-28.7H2401.9z M2329.7,248l-14-4.8v-22l14,5.6V248z M2349.8,248l-14-4.8v-22l14,5.6V248z"/>
<path class="st0" d="M2460.2,326.1v48.3l-1.8,2.5h30.8v-17.4c-2.4-1.4-4.1-4-4.1-6.9c0-4.4,3.6-8,8-8c4.4,0,8,3.6,8,8
	c0,3-1.6,5.6-4.1,6.9v24.6h-7.8h-36.2l-34,33.6h-78.6l0.7-119H2300l-9.9-15.4h-13.4v163.3h56c1.4-2.4,4-4.1,6.9-4.1c4.4,0,8,3.6,8,8
	c0,4.4-3.6,8-8,8c-3,0-5.6-1.6-6.9-4.1h-56v28.5h168.6l80.6-80.6v-76.2H2460.2z"/>
<path class="st0" d="M2556.2,410.3v11.3h34.4l10.4-15.5h19.6v-11.9H2595l-10.8,16H2556.2z"/>
<path class="st0" d="M2777.7,201.7v31.6c2.4,1.4,4.1,4,4.1,6.9c0,4.4-3.6,8-8,8c-4.4,0-8-3.6-8-8c0-3,1.6-5.6,4.1-6.9v-31.6h-30.5
	l1,172.7l-0.3,0.5h29.5v-28.6c-2.4-1.4-4.1-4-4.1-6.9c0-4.4,3.6-8,8-8c4.4,0,8,3.6,8,8c0,3-1.6,5.6-4.1,6.9V382h-7.8h-34.6l-0.8,1.1
	l-36.3,34.5h-89.5l-10.7,16.3h-41.4v13.2h63.5c1.4-2.4,4-4.1,6.9-4.1c4.4,0,8,3.6,8,8c0,4.4-3.6,8-8,8c-3,0-5.6-1.6-6.9-4.1h-63.5
	v28h170.6l79.3-79.8V201.7H2777.7z"/>
<path class="st0" d="M2592.3,201.7v77.7c2.4,1.4,4.1,4,4.1,6.9c0,4.4-3.6,8-8,8c-4.4,0-8-3.6-8-8c0-3,1.6-5.6,4.1-6.9v-77.7h-28.3
	v201.4h25.8l10.4-16.2h28.1V201.7H2592.3z M2594.5,370.1l-13.9-4.8v-22l13.9,5.6V370.1z M2614.6,370.1l-14-4.8v-22l14,5.6V370.1z"/>
<path class="st0" d="M3086,110v69.8h-24.5l-10.6,15.8h-30.9V110H3086z"/>
<path class="st0" d="M3021.7,274.1v11.3h34.4l10.4-15.5h19.6V258h-25.6l-10.8,16H3021.7z"/>
<path class="st0" d="M3046.1,267.2l9.9-14.7h30V186h-21.1l-11.1,15.2h-136.1l-30.3,30.3h37.6c1.4-2.4,4-4.1,6.9-4.1c4.4,0,8,3.6,8,8
	s-3.6,8-8,8c-3,0-5.6-1.6-6.9-4.1h-45.4l-44,44V447h52.2c1.4-2.4,4-4.1,6.9-4.1c4.4,0,8,3.6,8,8c0,4.4-3.6,8-8,8
	c-3,0-5.6-1.6-6.9-4.1h-52.2v28.1h213.5V438c-2.4-1.4-4.1-4-4.1-6.9c0-4.4,3.6-8,8-8c4.4,0,8,3.6,8,8c0,3-1.6,5.6-4.1,6.9v44.9h29.1
	V283.1h-13l-11.2,16.2h-41.3v119.5h-118.4V311.3l0.2-0.3h-29.9v29.2c2.4,1.4,4.1,4,4.1,6.9c0,4.4-3.6,8-8,8c-4.4,0-8-3.6-8-8
	c0-3,1.6-5.6,4.1-6.9v-36.4h7.8h35.6l36.3-36.6L3046.1,267.2L3046.1,267.2z M2881.7,389.7l14,5.6v21.3l-14-4.8V389.7z M2861.6,389.7
	l14,5.6v21.3l-14-4.8V389.7z"/>
<path class="st0" d="M3181.8,146.1h-25.2c-1.4,2.4-4,4.1-6.9,4.1c-4.4,0-8-3.6-8-8c0-4.4,3.6-8,8-8c3,0,5.6,1.6,6.9,4.1h25.2V110
	h-65.5v64.4h65.5V146.1z"/>
<path class="st0" d="M3181.8,330.7v11.5h-19.2l-10.6,15.3h-35.7v-10.8h28l10.6-16H3181.8z"/>
<path class="st0" d="M3116.3,202.5v31.7h26.1c1.4-2.4,4-4.1,6.9-4.1c4.4,0,8,3.6,8,8s-3.6,8-8,8c-3,0-5.6-1.6-6.9-4.1h-26.1v98h25.1
	l10.8-16h29.6V202.5L3116.3,202.5L3116.3,202.5z M3137,306.1l-14-4.8v-22l14,5.6V306.1z M3157.1,306.1l-14-4.8v-22l14,5.6V306.1z"/>
<path class="st0" d="M3167.9,354.6l-10.7,16.7h-40.9v111.7h28.8v-72.1c-2.4-1.4-4.1-4-4.1-6.9c0-4.4,3.6-8,8-8c4.4,0,8,3.6,8,8
	c0,3-1.6,5.6-4.1,6.9v72.1h28.8V354.6H3167.9z"/>
<path class="st0" d="M3461.7,257.5v13H3442l-10.7,15.7h-36.8v-12.9h30l10.4-15.8H3461.7z"/>
<path class="st0" d="M3431.9,250.5h29.7v-11.2h-56.5c-1.4,2.4-4,4.1-6.9,4.1c-4.4,0-8-3.6-8-8s3.6-8,8-8c3,0,5.6,1.6,6.9,4.1h56.5
	v-29.8h-213.2v49.9c2.4,1.4,4.1,4,4.1,6.9c0,4.4-3.6,8-8,8c-4.4,0-8-3.6-8-8c0-3,1.6-5.6,4.1-6.9v-49.9h-30.2v245h69.6
	c1.4-2.4,4-4.1,6.9-4.1c4.4,0,8,3.6,8,8c0,4.4-3.6,8-8,8c-3,0-5.6-1.6-6.9-4.1h-69.6v28.4h171.4l79.8-79.8V282.3h-13.4l-10.9,16.6
	h-42.4v75.8l-0.1,0.1h30.1V346c-2.4-1.4-4.1-4-4.1-6.9c0-4.4,3.6-8,8-8c4.4,0,8,3.6,8,8c0,3-1.6,5.6-4.1,6.9V382h-7.8h-36.3
	l-0.2,0.3l-35.1,35.1H3277V266.9h143.5L3431.9,250.5z M3251.7,417.7l-14-4.8v-22l14,5.6V417.7z M3271.8,417.7l-14-4.8v-22l14,5.6
	V417.7z"/>
</svg>
